# xmcd CD database file
#
# Track frame offsets:
#	150
#	20650
#	38675
#	54185
#
# Disc length: 912 seconds
#
# Revision: 2
# Processed by: cddbd v1.5.2PL0 Copyright (c) Steve Scherf et al.
# Submitted via: CDex 1.70beta2
#
DISCID=26038e04
DTITLE=KEYTALK - MONSTER DANCE
DYEAR=2014
DGENRE=J-Rock
TTITLE0=MONSTER DANCE
TTITLE1=エンドロール
TTITLE2=FREEDOM
TTITLE3=O型
EXTD=YEAR: 2014
EXTT0=
EXTT1=
EXTT2=
EXTT3=
PLAYORDER=
